<?xml version="1.0" encoding="UTF-8" standalone="no"?>
<!DOCTYPE svg PUBLIC "-//W3C//DTD SVG 1.1//EN"
 "http://www.w3.org/Graphics/SVG/1.1/DTD/svg11.dtd">
<!-- Generated by graphviz version 2.42.3 (20191010.1750)
 -->
<!-- Title: dag Pages: 1 -->
<svg width="715pt" height="1814pt"
 viewBox="0.00 0.00 715.20 1813.80" xmlns="http://www.w3.org/2000/svg" xmlns:xlink="http://www.w3.org/1999/xlink">
<g id="graph0" class="graph" transform="scale(1 1) rotate(0) translate(4 1809.8)">
<title>dag</title>
<polygon fill="white" stroke="transparent" points="-4,4 -4,-1809.8 711.2,-1809.8 711.2,4 -4,4"/>
<!-- p0 -->
<g id="node1" class="node">
<title>p0</title>
<ellipse fill="black" stroke="black" cx="258.6" cy="-1802.2" rx="3.6" ry="3.6"/>
</g>
<!-- p3 -->
<g id="node2" class="node">
<title>p3</title>
<ellipse fill="none" stroke="black" cx="348.6" cy="-1729.6" rx="64.19" ry="18"/>
<text text-anchor="middle" x="348.6" y="-1725.9" font-family="Times,serif" font-size="14.00">getNCBIIds</text>
</g>
<!-- p0&#45;&gt;p3 -->
<g id="edge1" class="edge">
<title>p0&#45;&gt;p3</title>
<path fill="none" stroke="black" d="M259.36,-1798.62C261.36,-1792.25 267.33,-1775.54 277.6,-1765.6 284.49,-1758.93 292.89,-1753.3 301.48,-1748.63"/>
<polygon fill="black" stroke="black" points="303.08,-1751.74 310.44,-1744.11 299.93,-1745.49 303.08,-1751.74"/>
<text text-anchor="middle" x="311.1" y="-1769.4" font-family="Times,serif" font-size="14.00">refseqid</text>
</g>
<!-- p4 -->
<g id="node5" class="node">
<title>p4</title>
<ellipse fill="none" stroke="black" cx="348.6" cy="-1657.1" rx="3.5" ry="3.5"/>
<text text-anchor="middle" x="307.6" y="-1664.4" font-family="Times,serif" font-size="14.00">splitText</text>
</g>
<!-- p3&#45;&gt;p4 -->
<g id="edge4" class="edge">
<title>p3&#45;&gt;p4</title>
<path fill="none" stroke="black" d="M348.6,-1711.53C348.6,-1698.98 348.6,-1682.19 348.6,-1670.8"/>
<polygon fill="black" stroke="black" points="352.1,-1670.76 348.6,-1660.76 345.1,-1670.76 352.1,-1670.76"/>
<text text-anchor="middle" x="373.6" y="-1682.4" font-family="Times,serif" font-size="14.00">hgncid</text>
</g>
<!-- p1 -->
<g id="node3" class="node">
<title>p1</title>
<ellipse fill="black" stroke="black" cx="348.6" cy="-1802.2" rx="3.6" ry="3.6"/>
</g>
<!-- p1&#45;&gt;p3 -->
<g id="edge2" class="edge">
<title>p1&#45;&gt;p3</title>
<path fill="none" stroke="black" d="M348.6,-1798.52C348.6,-1791.85 348.6,-1773.9 348.6,-1758.13"/>
<polygon fill="black" stroke="black" points="352.1,-1757.73 348.6,-1747.73 345.1,-1757.73 352.1,-1757.73"/>
<text text-anchor="middle" x="406.6" y="-1769.4" font-family="Times,serif" font-size="14.00">gene2accession</text>
</g>
<!-- p2 -->
<g id="node4" class="node">
<title>p2</title>
<ellipse fill="black" stroke="black" cx="487.6" cy="-1802.2" rx="3.6" ry="3.6"/>
</g>
<!-- p2&#45;&gt;p3 -->
<g id="edge3" class="edge">
<title>p2&#45;&gt;p3</title>
<path fill="none" stroke="black" d="M486.7,-1798.51C484.35,-1791.87 477.36,-1774.62 465.6,-1765.6 450.76,-1754.23 432.27,-1746.54 414.39,-1741.34"/>
<polygon fill="black" stroke="black" points="415.12,-1737.91 404.55,-1738.7 413.31,-1744.67 415.12,-1737.91"/>
<text text-anchor="middle" x="511.1" y="-1769.4" font-family="Times,serif" font-size="14.00">geneinfo</text>
</g>
<!-- p5 -->
<g id="node6" class="node">
<title>p5</title>
<ellipse fill="none" stroke="black" cx="348.6" cy="-1613.1" rx="3.5" ry="3.5"/>
<text text-anchor="middle" x="332.6" y="-1620.4" font-family="Times,serif" font-size="14.00">map</text>
</g>
<!-- p4&#45;&gt;p5 -->
<g id="edge5" class="edge">
<title>p4&#45;&gt;p5</title>
<path fill="none" stroke="black" d="M348.6,-1653.34C348.6,-1648.07 348.6,-1636.23 348.6,-1626.92"/>
<polygon fill="black" stroke="black" points="352.1,-1626.92 348.6,-1616.92 345.1,-1626.92 352.1,-1626.92"/>
</g>
<!-- p6 -->
<g id="node7" class="node">
<title>p6</title>
<ellipse fill="none" stroke="black" cx="348.6" cy="-1554.6" rx="80.69" ry="18"/>
<text text-anchor="middle" x="348.6" y="-1550.9" font-family="Times,serif" font-size="14.00">getOrthoDBIds</text>
</g>
<!-- p5&#45;&gt;p6 -->
<g id="edge6" class="edge">
<title>p5&#45;&gt;p6</title>
<path fill="none" stroke="black" d="M348.6,-1609.37C348.6,-1604.43 348.6,-1593.5 348.6,-1582.77"/>
<polygon fill="black" stroke="black" points="352.1,-1582.75 348.6,-1572.75 345.1,-1582.75 352.1,-1582.75"/>
</g>
<!-- p9 -->
<g id="node8" class="node">
<title>p9</title>
<ellipse fill="none" stroke="black" cx="308.6" cy="-1482.1" rx="3.5" ry="3.5"/>
<text text-anchor="middle" x="259.6" y="-1489.4" font-family="Times,serif" font-size="14.00">collectFile</text>
</g>
<!-- p6&#45;&gt;p9 -->
<g id="edge7" class="edge">
<title>p6&#45;&gt;p9</title>
<path fill="none" stroke="black" d="M324.2,-1537.19C318.37,-1531.98 312.89,-1525.7 309.6,-1518.6 306.36,-1511.61 306.05,-1502.98 306.57,-1495.98"/>
<polygon fill="black" stroke="black" points="310.07,-1496.23 307.98,-1485.85 303.14,-1495.27 310.07,-1496.23"/>
<text text-anchor="middle" x="338.6" y="-1507.4" font-family="Times,serif" font-size="14.00">protids</text>
</g>
<!-- p7 -->
<g id="node9" class="node">
<title>p7</title>
<ellipse fill="none" stroke="black" cx="389.6" cy="-1482.1" rx="3.5" ry="3.5"/>
<text text-anchor="middle" x="340.6" y="-1467.4" font-family="Times,serif" font-size="14.00">collectFile</text>
</g>
<!-- p6&#45;&gt;p7 -->
<g id="edge8" class="edge">
<title>p6&#45;&gt;p7</title>
<path fill="none" stroke="black" d="M358.52,-1536.53C366.06,-1523.57 376.22,-1506.1 382.84,-1494.72"/>
<polygon fill="black" stroke="black" points="386.05,-1496.17 388.05,-1485.76 380,-1492.65 386.05,-1496.17"/>
<text text-anchor="middle" x="411.1" y="-1507.4" font-family="Times,serif" font-size="14.00">protids2</text>
</g>
<!-- p10 -->
<g id="node11" class="node">
<title>p10</title>
<ellipse fill="none" stroke="black" cx="308.6" cy="-1438.1" rx="3.5" ry="3.5"/>
<text text-anchor="middle" x="267.6" y="-1445.4" font-family="Times,serif" font-size="14.00">splitText</text>
</g>
<!-- p9&#45;&gt;p10 -->
<g id="edge10" class="edge">
<title>p9&#45;&gt;p10</title>
<path fill="none" stroke="black" d="M308.6,-1478.34C308.6,-1473.07 308.6,-1461.23 308.6,-1451.92"/>
<polygon fill="black" stroke="black" points="312.1,-1451.92 308.6,-1441.92 305.1,-1451.92 312.1,-1451.92"/>
</g>
<!-- p8 -->
<g id="node10" class="node">
<title>p8</title>
<ellipse fill="none" stroke="black" cx="389.6" cy="-1438.1" rx="3.5" ry="3.5"/>
<text text-anchor="middle" x="348.6" y="-1445.4" font-family="Times,serif" font-size="14.00">subscribe</text>
</g>
<!-- p7&#45;&gt;p8 -->
<g id="edge9" class="edge">
<title>p7&#45;&gt;p8</title>
<path fill="none" stroke="black" d="M389.6,-1478.34C389.6,-1473.07 389.6,-1461.23 389.6,-1451.92"/>
<polygon fill="black" stroke="black" points="393.1,-1451.92 389.6,-1441.92 386.1,-1451.92 393.1,-1451.92"/>
</g>
<!-- p11 -->
<g id="node12" class="node">
<title>p11</title>
<ellipse fill="none" stroke="black" cx="308.6" cy="-1394.1" rx="3.5" ry="3.5"/>
<text text-anchor="middle" x="292.6" y="-1401.4" font-family="Times,serif" font-size="14.00">map</text>
</g>
<!-- p10&#45;&gt;p11 -->
<g id="edge11" class="edge">
<title>p10&#45;&gt;p11</title>
<path fill="none" stroke="black" d="M308.6,-1434.34C308.6,-1429.07 308.6,-1417.23 308.6,-1407.92"/>
<polygon fill="black" stroke="black" points="312.1,-1407.92 308.6,-1397.92 305.1,-1407.92 312.1,-1407.92"/>
</g>
<!-- p12 -->
<g id="node13" class="node">
<title>p12</title>
<ellipse fill="none" stroke="black" cx="308.6" cy="-1350.1" rx="3.5" ry="3.5"/>
<text text-anchor="middle" x="280.1" y="-1357.4" font-family="Times,serif" font-size="14.00">unique</text>
</g>
<!-- p11&#45;&gt;p12 -->
<g id="edge12" class="edge">
<title>p11&#45;&gt;p12</title>
<path fill="none" stroke="black" d="M308.6,-1390.34C308.6,-1385.07 308.6,-1373.23 308.6,-1363.92"/>
<polygon fill="black" stroke="black" points="312.1,-1363.92 308.6,-1353.92 305.1,-1363.92 312.1,-1363.92"/>
</g>
<!-- p13 -->
<g id="node14" class="node">
<title>p13</title>
<ellipse fill="none" stroke="black" cx="308.6" cy="-1306.1" rx="3.5" ry="3.5"/>
<text text-anchor="middle" x="280.1" y="-1313.4" font-family="Times,serif" font-size="14.00">filter</text>
</g>
<!-- p12&#45;&gt;p13 -->
<g id="edge13" class="edge">
<title>p12&#45;&gt;p13</title>
<path fill="none" stroke="black" d="M308.6,-1346.34C308.6,-1341.07 308.6,-1329.23 308.6,-1319.92"/>
<polygon fill="black" stroke="black" points="312.1,-1319.92 308.6,-1309.92 305.1,-1319.92 312.1,-1319.92"/>
</g>
<!-- p14 -->
<g id="node15" class="node">
<title>p14</title>
<ellipse fill="none" stroke="black" cx="308.6" cy="-1247.6" rx="102.08" ry="18"/>
<text text-anchor="middle" x="308.6" y="-1243.9" font-family="Times,serif" font-size="14.00">downloadSequences</text>
</g>
<!-- p13&#45;&gt;p14 -->
<g id="edge14" class="edge">
<title>p13&#45;&gt;p14</title>
<path fill="none" stroke="black" d="M308.6,-1302.37C308.6,-1297.43 308.6,-1286.5 308.6,-1275.77"/>
<polygon fill="black" stroke="black" points="312.1,-1275.75 308.6,-1265.75 305.1,-1275.75 312.1,-1275.75"/>
</g>
<!-- p15 -->
<g id="node16" class="node">
<title>p15</title>
<ellipse fill="none" stroke="black" cx="308.6" cy="-1160.6" rx="69.59" ry="18"/>
<text text-anchor="middle" x="308.6" y="-1156.9" font-family="Times,serif" font-size="14.00">getMapTable</text>
</g>
<!-- p14&#45;&gt;p15 -->
<g id="edge15" class="edge">
<title>p14&#45;&gt;p15</title>
<path fill="none" stroke="black" d="M308.6,-1229.4C308.6,-1217.76 308.6,-1202.15 308.6,-1188.84"/>
<polygon fill="black" stroke="black" points="312.1,-1188.78 308.6,-1178.78 305.1,-1188.78 312.1,-1188.78"/>
<text text-anchor="middle" x="346.1" y="-1200.4" font-family="Times,serif" font-size="14.00">sequences</text>
</g>
<!-- p18 -->
<g id="node17" class="node">
<title>p18</title>
<ellipse fill="none" stroke="black" cx="253.6" cy="-1073.6" rx="90.98" ry="18"/>
<text text-anchor="middle" x="253.6" y="-1069.9" font-family="Times,serif" font-size="14.00">renameSequences</text>
</g>
<!-- p15&#45;&gt;p18 -->
<g id="edge16" class="edge">
<title>p15&#45;&gt;p18</title>
<path fill="none" stroke="black" d="M292.14,-1142.93C287.12,-1137.36 281.82,-1130.96 277.6,-1124.6 272.75,-1117.3 268.32,-1108.87 264.62,-1101.04"/>
<polygon fill="black" stroke="black" points="267.79,-1099.57 260.49,-1091.9 261.41,-1102.45 267.79,-1099.57"/>
<text text-anchor="middle" x="306.6" y="-1113.4" font-family="Times,serif" font-size="14.00">mapfile</text>
</g>
<!-- p16 -->
<g id="node18" class="node">
<title>p16</title>
<ellipse fill="none" stroke="black" cx="365.6" cy="-1073.6" rx="3.5" ry="3.5"/>
<text text-anchor="middle" x="407.6" y="-1080.9" font-family="Times,serif" font-size="14.00">collectFile</text>
</g>
<!-- p15&#45;&gt;p16 -->
<g id="edge17" class="edge">
<title>p15&#45;&gt;p16</title>
<path fill="none" stroke="black" d="M322.19,-1142.81C326.61,-1137.13 331.45,-1130.69 335.6,-1124.6 344.39,-1111.72 353.46,-1096.24 359.3,-1085.95"/>
<polygon fill="black" stroke="black" points="362.5,-1087.39 364.32,-1076.95 356.39,-1083.98 362.5,-1087.39"/>
<text text-anchor="middle" x="379.1" y="-1113.4" font-family="Times,serif" font-size="14.00">genefile</text>
</g>
<!-- p19 -->
<g id="node20" class="node">
<title>p19</title>
<ellipse fill="none" stroke="black" cx="253.6" cy="-986.6" rx="85.59" ry="18"/>
<text text-anchor="middle" x="253.6" y="-982.9" font-family="Times,serif" font-size="14.00">cleanSequences</text>
</g>
<!-- p18&#45;&gt;p19 -->
<g id="edge19" class="edge">
<title>p18&#45;&gt;p19</title>
<path fill="none" stroke="black" d="M253.6,-1055.4C253.6,-1043.76 253.6,-1028.15 253.6,-1014.84"/>
<polygon fill="black" stroke="black" points="257.1,-1014.78 253.6,-1004.78 250.1,-1014.78 257.1,-1014.78"/>
<text text-anchor="middle" x="282.6" y="-1026.4" font-family="Times,serif" font-size="14.00">renamed</text>
</g>
<!-- p17 -->
<g id="node19" class="node">
<title>p17</title>
<ellipse fill="none" stroke="black" cx="365.6" cy="-986.6" rx="3.5" ry="3.5"/>
<text text-anchor="middle" x="399.6" y="-993.9" font-family="Times,serif" font-size="14.00">subscribe</text>
</g>
<!-- p16&#45;&gt;p17 -->
<g id="edge18" class="edge">
<title>p16&#45;&gt;p17</title>
<path fill="none" stroke="black" d="M365.6,-1069.77C365.6,-1059.09 365.6,-1020.79 365.6,-1000.47"/>
<polygon fill="black" stroke="black" points="369.1,-1000.18 365.6,-990.18 362.1,-1000.18 369.1,-1000.18"/>
</g>
<!-- p20 -->
<g id="node21" class="node">
<title>p20</title>
<ellipse fill="none" stroke="black" cx="253.6" cy="-899.6" rx="85.59" ry="18"/>
<text text-anchor="middle" x="253.6" y="-895.9" font-family="Times,serif" font-size="14.00">alignSequences</text>
</g>
<!-- p19&#45;&gt;p20 -->
<g id="edge20" class="edge">
<title>p19&#45;&gt;p20</title>
<path fill="none" stroke="black" d="M253.6,-968.4C253.6,-956.76 253.6,-941.15 253.6,-927.84"/>
<polygon fill="black" stroke="black" points="257.1,-927.78 253.6,-917.78 250.1,-927.78 257.1,-927.78"/>
<text text-anchor="middle" x="282.6" y="-939.4" font-family="Times,serif" font-size="14.00">cleaned</text>
</g>
<!-- p21 -->
<g id="node22" class="node">
<title>p21</title>
<ellipse fill="none" stroke="black" cx="253.6" cy="-827.1" rx="3.5" ry="3.5"/>
<text text-anchor="middle" x="221.1" y="-834.4" font-family="Times,serif" font-size="14.00">collect</text>
</g>
<!-- p20&#45;&gt;p21 -->
<g id="edge21" class="edge">
<title>p20&#45;&gt;p21</title>
<path fill="none" stroke="black" d="M253.6,-881.53C253.6,-868.98 253.6,-852.19 253.6,-840.8"/>
<polygon fill="black" stroke="black" points="257.1,-840.76 253.6,-830.76 250.1,-840.76 257.1,-840.76"/>
<text text-anchor="middle" x="291.1" y="-852.4" font-family="Times,serif" font-size="14.00">alignment</text>
</g>
<!-- p22 -->
<g id="node23" class="node">
<title>p22</title>
<ellipse fill="none" stroke="black" cx="253.6" cy="-768.6" rx="90.98" ry="18"/>
<text text-anchor="middle" x="253.6" y="-764.9" font-family="Times,serif" font-size="14.00">concatSequences</text>
</g>
<!-- p21&#45;&gt;p22 -->
<g id="edge22" class="edge">
<title>p21&#45;&gt;p22</title>
<path fill="none" stroke="black" d="M253.6,-823.37C253.6,-818.43 253.6,-807.5 253.6,-796.77"/>
<polygon fill="black" stroke="black" points="257.1,-796.75 253.6,-786.75 250.1,-796.75 257.1,-796.75"/>
</g>
<!-- p23 -->
<g id="node24" class="node">
<title>p23</title>
<ellipse fill="none" stroke="black" cx="253.6" cy="-681.6" rx="64.19" ry="18"/>
<text text-anchor="middle" x="253.6" y="-677.9" font-family="Times,serif" font-size="14.00">cleanAlign</text>
</g>
<!-- p22&#45;&gt;p23 -->
<g id="edge23" class="edge">
<title>p22&#45;&gt;p23</title>
<path fill="none" stroke="black" d="M253.6,-750.4C253.6,-738.76 253.6,-723.15 253.6,-709.84"/>
<polygon fill="black" stroke="black" points="257.1,-709.78 253.6,-699.78 250.1,-709.78 257.1,-709.78"/>
<text text-anchor="middle" x="278.6" y="-721.4" font-family="Times,serif" font-size="14.00">concat</text>
</g>
<!-- p24 -->
<g id="node25" class="node">
<title>p24</title>
<ellipse fill="none" stroke="black" cx="253.6" cy="-594.6" rx="102.08" ry="18"/>
<text text-anchor="middle" x="253.6" y="-590.9" font-family="Times,serif" font-size="14.00">reformatAlignment</text>
</g>
<!-- p23&#45;&gt;p24 -->
<g id="edge24" class="edge">
<title>p23&#45;&gt;p24</title>
<path fill="none" stroke="black" d="M253.6,-663.4C253.6,-651.76 253.6,-636.15 253.6,-622.84"/>
<polygon fill="black" stroke="black" points="257.1,-622.78 253.6,-612.78 250.1,-622.78 257.1,-622.78"/>
<text text-anchor="middle" x="295.1" y="-634.4" font-family="Times,serif" font-size="14.00">cleanalign</text>
</g>
<!-- p26 -->
<g id="node26" class="node">
<title>p26</title>
<ellipse fill="none" stroke="black" cx="326.6" cy="-507.6" rx="80.69" ry="18"/>
<text text-anchor="middle" x="326.6" y="-503.9" font-family="Times,serif" font-size="14.00">inferTrueTree</text>
</g>
<!-- p24&#45;&gt;p26 -->
<g id="edge25" class="edge">
<title>p24&#45;&gt;p26</title>
<path fill="none" stroke="black" d="M249.73,-576.57C248.35,-566.25 248.42,-553.25 254.6,-543.6 258.67,-537.24 264.25,-532.01 270.52,-527.7"/>
<polygon fill="black" stroke="black" points="272.63,-530.52 279.42,-522.39 269.04,-524.51 272.63,-530.52"/>
<text text-anchor="middle" x="316.6" y="-547.4" font-family="Times,serif" font-size="14.00">alignmentphylip</text>
</g>
<!-- p30 -->
<g id="node28" class="node">
<title>p30</title>
<ellipse fill="none" stroke="black" cx="553.6" cy="-420.6" rx="75.29" ry="18"/>
<text text-anchor="middle" x="553.6" y="-416.9" font-family="Times,serif" font-size="14.00">pruneNCBITax</text>
</g>
<!-- p26&#45;&gt;p30 -->
<g id="edge27" class="edge">
<title>p26&#45;&gt;p30</title>
<path fill="none" stroke="black" d="M366.14,-491.79C404.83,-477.31 463.83,-455.22 505.28,-439.69"/>
<polygon fill="black" stroke="black" points="506.75,-442.88 514.89,-436.09 504.3,-436.32 506.75,-442.88"/>
<text text-anchor="middle" x="470.6" y="-460.4" font-family="Times,serif" font-size="14.00">tree</text>
</g>
<!-- p27 -->
<g id="node29" class="node">
<title>p27</title>
<ellipse fill="none" stroke="black" cx="326.6" cy="-246.6" rx="64.19" ry="18"/>
<text text-anchor="middle" x="326.6" y="-242.9" font-family="Times,serif" font-size="14.00">rerootTree</text>
</g>
<!-- p26&#45;&gt;p27 -->
<g id="edge28" class="edge">
<title>p26&#45;&gt;p27</title>
<path fill="none" stroke="black" d="M326.6,-489.2C326.6,-445.06 326.6,-328.43 326.6,-275.02"/>
<polygon fill="black" stroke="black" points="330.1,-274.92 326.6,-264.92 323.1,-274.92 330.1,-274.92"/>
<text text-anchor="middle" x="347.6" y="-373.4" font-family="Times,serif" font-size="14.00">tree2</text>
</g>
<!-- p25 -->
<g id="node27" class="node">
<title>p25</title>
<ellipse fill="black" stroke="black" cx="400.6" cy="-594.6" rx="3.6" ry="3.6"/>
</g>
<!-- p25&#45;&gt;p26 -->
<g id="edge26" class="edge">
<title>p25&#45;&gt;p26</title>
<path fill="none" stroke="black" d="M400.02,-591.04C398.12,-583.19 391.5,-559.02 378.6,-543.6 374.52,-538.72 369.6,-534.25 364.43,-530.25"/>
<polygon fill="black" stroke="black" points="366.36,-527.33 356.18,-524.37 362.29,-533.02 366.36,-527.33"/>
<text text-anchor="middle" x="404.6" y="-547.4" font-family="Times,serif" font-size="14.00">seed</text>
</g>
<!-- p32 -->
<g id="node34" class="node">
<title>p32</title>
<ellipse fill="none" stroke="black" cx="496.6" cy="-333.6" rx="107.48" ry="18"/>
<text text-anchor="middle" x="496.6" y="-329.9" font-family="Times,serif" font-size="14.00">renameNCBITaxonomy</text>
</g>
<!-- p30&#45;&gt;p32 -->
<g id="edge33" class="edge">
<title>p30&#45;&gt;p32</title>
<path fill="none" stroke="black" d="M542.07,-402.4C533.95,-390.3 522.96,-373.9 513.81,-360.27"/>
<polygon fill="black" stroke="black" points="516.59,-358.13 508.12,-351.78 510.78,-362.03 516.59,-358.13"/>
<text text-anchor="middle" x="569.1" y="-373.4" font-family="Times,serif" font-size="14.00">ncbipruned</text>
</g>
<!-- p34 -->
<g id="node30" class="node">
<title>p34</title>
<ellipse fill="none" stroke="black" cx="304.6" cy="-159.6" rx="75.29" ry="18"/>
<text text-anchor="middle" x="304.6" y="-155.9" font-family="Times,serif" font-size="14.00">annotateTree</text>
</g>
<!-- p27&#45;&gt;p34 -->
<g id="edge29" class="edge">
<title>p27&#45;&gt;p34</title>
<path fill="none" stroke="black" d="M270.34,-237.67C254.59,-232.57 239.17,-224.23 229.6,-210.6 220.04,-196.99 231.35,-186.06 247.85,-177.93"/>
<polygon fill="black" stroke="black" points="249.71,-180.93 257.45,-173.7 246.89,-174.53 249.71,-180.93"/>
<text text-anchor="middle" x="275.1" y="-199.4" font-family="Times,serif" font-size="14.00">reroottree1</text>
</g>
<!-- p35 -->
<g id="node31" class="node">
<title>p35</title>
<ellipse fill="none" stroke="black" cx="511.6" cy="-159.6" rx="75.29" ry="18"/>
<text text-anchor="middle" x="511.6" y="-155.9" font-family="Times,serif" font-size="14.00">compareTrees</text>
</g>
<!-- p27&#45;&gt;p35 -->
<g id="edge30" class="edge">
<title>p27&#45;&gt;p35</title>
<path fill="none" stroke="black" d="M374.31,-234.44C403.6,-227.16 438.03,-217.73 451.6,-210.6 453.58,-209.56 469.47,-196.3 484.4,-183.7"/>
<polygon fill="black" stroke="black" points="486.66,-186.37 492.04,-177.24 482.14,-181.02 486.66,-186.37"/>
<text text-anchor="middle" x="514.1" y="-199.4" font-family="Times,serif" font-size="14.00">reroottree2</text>
</g>
<!-- p40 -->
<g id="node37" class="node">
<title>p40</title>
<ellipse fill="none" stroke="black" cx="158.6" cy="-72.6" rx="64.19" ry="18"/>
<text text-anchor="middle" x="158.6" y="-68.9" font-family="Times,serif" font-size="14.00">uploadTree</text>
</g>
<!-- p34&#45;&gt;p40 -->
<g id="edge38" class="edge">
<title>p34&#45;&gt;p40</title>
<path fill="none" stroke="black" d="M296.75,-141.55C290.95,-130.69 282.07,-117.11 270.6,-108.6 256.38,-98.05 238.9,-90.63 222.01,-85.43"/>
<polygon fill="black" stroke="black" points="222.75,-82 212.17,-82.61 220.82,-88.73 222.75,-82"/>
<text text-anchor="middle" x="322.1" y="-112.4" font-family="Times,serif" font-size="14.00">annotated</text>
</g>
<!-- p36 -->
<g id="node38" class="node">
<title>p36</title>
<ellipse fill="black" stroke="black" cx="511.6" cy="-72.6" rx="1.8" ry="1.8"/>
</g>
<!-- p35&#45;&gt;p36 -->
<g id="edge39" class="edge">
<title>p35&#45;&gt;p36</title>
<path fill="none" stroke="black" d="M511.6,-141.4C511.6,-124.52 511.6,-99.26 511.6,-84.82"/>
<polygon fill="black" stroke="black" points="515.1,-84.68 511.6,-74.68 508.1,-84.68 515.1,-84.68"/>
<text text-anchor="middle" x="553.1" y="-112.4" font-family="Times,serif" font-size="14.00">comparison</text>
</g>
<!-- p28 -->
<g id="node32" class="node">
<title>p28</title>
<ellipse fill="none" stroke="black" cx="553.6" cy="-507.6" rx="128.88" ry="18"/>
<text text-anchor="middle" x="553.6" y="-503.9" font-family="Times,serif" font-size="14.00">downloadNewickTaxonomy</text>
</g>
<!-- p28&#45;&gt;p30 -->
<g id="edge31" class="edge">
<title>p28&#45;&gt;p30</title>
<path fill="none" stroke="black" d="M553.6,-489.4C553.6,-477.76 553.6,-462.15 553.6,-448.84"/>
<polygon fill="black" stroke="black" points="557.1,-448.78 553.6,-438.78 550.1,-448.78 557.1,-448.78"/>
<text text-anchor="middle" x="582.6" y="-460.4" font-family="Times,serif" font-size="14.00">ncbitax</text>
</g>
<!-- p29 -->
<g id="node33" class="node">
<title>p29</title>
<ellipse fill="black" stroke="black" cx="703.6" cy="-507.6" rx="3.6" ry="3.6"/>
</g>
<!-- p29&#45;&gt;p30 -->
<g id="edge32" class="edge">
<title>p29&#45;&gt;p30</title>
<path fill="none" stroke="black" d="M702.23,-503.87C700.29,-500.22 696.43,-493.73 691.6,-489.6 666.08,-467.8 632.35,-451.01 604.63,-439.57"/>
<polygon fill="black" stroke="black" points="605.69,-436.22 595.1,-435.75 603.08,-442.72 605.69,-436.22"/>
<text text-anchor="middle" x="676.1" y="-460.4" font-family="Times,serif" font-size="14.00">map</text>
</g>
<!-- p33 -->
<g id="node36" class="node">
<title>p33</title>
<ellipse fill="none" stroke="black" cx="496.6" cy="-246.6" rx="80.69" ry="18"/>
<text text-anchor="middle" x="496.6" y="-242.9" font-family="Times,serif" font-size="14.00">rerootNCBITax</text>
</g>
<!-- p32&#45;&gt;p33 -->
<g id="edge35" class="edge">
<title>p32&#45;&gt;p33</title>
<path fill="none" stroke="black" d="M496.6,-315.4C496.6,-303.76 496.6,-288.15 496.6,-274.84"/>
<polygon fill="black" stroke="black" points="500.1,-274.78 496.6,-264.78 493.1,-274.78 500.1,-274.78"/>
<text text-anchor="middle" x="550.6" y="-286.4" font-family="Times,serif" font-size="14.00">ncbitaxrename</text>
</g>
<!-- p31 -->
<g id="node35" class="node">
<title>p31</title>
<ellipse fill="black" stroke="black" cx="456.6" cy="-420.6" rx="3.6" ry="3.6"/>
</g>
<!-- p31&#45;&gt;p32 -->
<g id="edge34" class="edge">
<title>p31&#45;&gt;p32</title>
<path fill="none" stroke="black" d="M457.75,-417.15C461.62,-408.93 474.42,-381.72 484.29,-360.77"/>
<polygon fill="black" stroke="black" points="487.48,-362.21 488.57,-351.67 481.14,-359.22 487.48,-362.21"/>
<text text-anchor="middle" x="491.1" y="-373.4" font-family="Times,serif" font-size="14.00">map</text>
</g>
<!-- p33&#45;&gt;p34 -->
<g id="edge36" class="edge">
<title>p33&#45;&gt;p34</title>
<path fill="none" stroke="black" d="M436.69,-234.41C395.91,-226.42 347.9,-216.15 339.6,-210.6 330.71,-204.65 323.39,-195.62 317.78,-186.86"/>
<polygon fill="black" stroke="black" points="320.65,-184.83 312.57,-177.98 314.61,-188.37 320.65,-184.83"/>
<text text-anchor="middle" x="393.6" y="-199.4" font-family="Times,serif" font-size="14.00">ncbirerooted1</text>
</g>
<!-- p33&#45;&gt;p35 -->
<g id="edge37" class="edge">
<title>p33&#45;&gt;p35</title>
<path fill="none" stroke="black" d="M541.98,-231.51C551.35,-226.44 560.05,-219.64 565.6,-210.6 572.32,-199.65 565.43,-189.58 554.58,-181.4"/>
<polygon fill="black" stroke="black" points="556.38,-178.4 546.11,-175.79 552.51,-184.23 556.38,-178.4"/>
<text text-anchor="middle" x="621.6" y="-199.4" font-family="Times,serif" font-size="14.00">ncbirerooted2</text>
</g>
<!-- p42 -->
<g id="node42" class="node">
<title>p42</title>
<ellipse fill="black" stroke="black" cx="118.6" cy="-1.8" rx="1.8" ry="1.8"/>
</g>
<!-- p40&#45;&gt;p42 -->
<g id="edge43" class="edge">
<title>p40&#45;&gt;p42</title>
<path fill="none" stroke="black" d="M134.61,-55.55C128.63,-50.27 122.97,-43.86 119.6,-36.6 116.31,-29.52 116.17,-20.67 116.79,-13.81"/>
<polygon fill="black" stroke="black" points="120.29,-14.12 118.38,-3.69 113.37,-13.03 120.29,-14.12"/>
<text text-anchor="middle" x="148.6" y="-25.4" font-family="Times,serif" font-size="14.00">iTOLurl</text>
</g>
<!-- p41 -->
<g id="node43" class="node">
<title>p41</title>
<ellipse fill="black" stroke="black" cx="199.6" cy="-1.8" rx="1.8" ry="1.8"/>
</g>
<!-- p40&#45;&gt;p41 -->
<g id="edge44" class="edge">
<title>p40&#45;&gt;p41</title>
<path fill="none" stroke="black" d="M168.73,-54.59C176.64,-41.32 187.34,-23.37 193.84,-12.46"/>
<polygon fill="black" stroke="black" points="197.01,-13.98 199.13,-3.59 191,-10.39 197.01,-13.98"/>
<text text-anchor="middle" x="225.1" y="-25.4" font-family="Times,serif" font-size="14.00">iTOLimage</text>
</g>
<!-- p37 -->
<g id="node39" class="node">
<title>p37</title>
<ellipse fill="black" stroke="black" cx="198.6" cy="-159.6" rx="3.6" ry="3.6"/>
</g>
<!-- p37&#45;&gt;p40 -->
<g id="edge40" class="edge">
<title>p37&#45;&gt;p40</title>
<path fill="none" stroke="black" d="M197.46,-155.86C194.31,-148.29 185.09,-126.41 176.6,-108.6 175.19,-105.64 173.67,-102.56 172.14,-99.51"/>
<polygon fill="black" stroke="black" points="175.26,-97.91 167.6,-90.59 169.02,-101.09 175.26,-97.91"/>
<text text-anchor="middle" x="225.1" y="-112.4" font-family="Times,serif" font-size="14.00">itolconfig</text>
</g>
<!-- p38 -->
<g id="node40" class="node">
<title>p38</title>
<ellipse fill="black" stroke="black" cx="117.6" cy="-159.6" rx="3.6" ry="3.6"/>
</g>
<!-- p38&#45;&gt;p40 -->
<g id="edge41" class="edge">
<title>p38&#45;&gt;p40</title>
<path fill="none" stroke="black" d="M116.49,-155.7C113.63,-147.72 106.74,-124.89 114.6,-108.6 116.87,-103.89 120.13,-99.61 123.85,-95.8"/>
<polygon fill="black" stroke="black" points="126.3,-98.3 131.44,-89.04 121.65,-93.07 126.3,-98.3"/>
<text text-anchor="middle" x="143.6" y="-112.4" font-family="Times,serif" font-size="14.00">itolkey</text>
</g>
<!-- p39 -->
<g id="node41" class="node">
<title>p39</title>
<ellipse fill="black" stroke="black" cx="3.6" cy="-159.6" rx="3.6" ry="3.6"/>
</g>
<!-- p39&#45;&gt;p40 -->
<g id="edge42" class="edge">
<title>p39&#45;&gt;p40</title>
<path fill="none" stroke="black" d="M3.42,-155.86C3.03,-147.48 3.07,-121.96 16.6,-108.6 27.69,-97.65 60.77,-89.16 92.22,-83.28"/>
<polygon fill="black" stroke="black" points="93.12,-86.68 102.35,-81.47 91.89,-79.79 93.12,-86.68"/>
<text text-anchor="middle" x="62.1" y="-112.4" font-family="Times,serif" font-size="14.00">itolproject</text>
</g>
</g>
</svg>
